<svg width="107" height="38" viewBox="0 0 107 38" fill="none" xmlns="http://www.w3.org/2000/svg">
<path d="M13.9793 37H0.538203V0.636363H13.9615C17.6665 0.636363 20.8566 1.36435 23.5318 2.82031C26.2188 4.26444 28.2903 6.34777 29.7463 9.07031C31.2023 11.781 31.9302 15.0244 31.9302 18.8004C31.9302 22.5883 31.2023 25.8435 29.7463 28.5661C28.3022 31.2886 26.2366 33.3778 23.5496 34.8338C20.8625 36.2779 17.6724 37 13.9793 37ZM9.32727 29.5071H13.6419C15.6779 29.5071 17.4002 29.1638 18.8088 28.4773C20.2293 27.7789 21.3005 26.6484 22.0226 25.0859C22.7565 23.5116 23.1234 21.4164 23.1234 18.8004C23.1234 16.1844 22.7565 14.1011 22.0226 12.5504C21.2887 10.9879 20.2056 9.8634 18.7733 9.17685C17.3528 8.47846 15.6009 8.12926 13.5176 8.12926H9.32727V29.5071ZM59.0609 0.636363H67.8322V24.0916C67.8322 26.8023 67.1871 29.1638 65.8969 31.1761C64.6066 33.1766 62.8074 34.7273 60.4991 35.8281C58.1909 36.9171 55.5098 37.4616 52.4558 37.4616C49.3663 37.4616 46.6675 36.9171 44.3592 35.8281C42.051 34.7273 40.2577 33.1766 38.9793 31.1761C37.7008 29.1638 37.0616 26.8023 37.0616 24.0916V0.636363H45.8507V23.3281C45.8507 24.5829 46.123 25.7015 46.6675 26.6839C47.2238 27.6664 47.9991 28.4358 48.9935 28.9922C49.9878 29.5485 51.1419 29.8267 52.4558 29.8267C53.7697 29.8267 54.9179 29.5485 55.9004 28.9922C56.8947 28.4358 57.6701 27.6664 58.2264 26.6839C58.7828 25.7015 59.0609 24.5829 59.0609 23.3281V0.636363ZM82.2365 0.636363L88.8772 12.1243H89.1612L95.8729 0.636363H105.71L94.7365 18.8182L106.065 37H95.9794L89.1612 25.3878H88.8772L82.059 37H72.0448L83.3196 18.8182L72.3289 0.636363H82.2365Z" fill="#031D3F"/>
</svg>
